<svg width="472" height="364" viewBox="0 0 472 364" fill="none" xmlns="http://www.w3.org/2000/svg">
<g clip-path="url(#clip0_5_44)">
<rect width="472" height="364" rx="8" fill="#F7FBF3"/>
<path d="M147.163 272H142.012V246.925H150.206L158.604 270.096L157.72 270.317V246.925H162.854V272H154.609L146.211 248.897L147.163 248.676V272ZM176.041 272.391C174.092 272.391 172.375 271.989 170.89 271.184C169.406 270.379 168.244 269.274 167.405 267.869C166.578 266.452 166.164 264.82 166.164 262.973C166.164 261.137 166.578 259.516 167.405 258.111C168.244 256.694 169.406 255.595 170.89 254.813C172.375 254.02 174.092 253.623 176.041 253.623C177.991 253.623 179.708 254.02 181.192 254.813C182.677 255.595 183.833 256.694 184.66 258.111C185.499 259.516 185.918 261.137 185.918 262.973C185.918 264.82 185.499 266.452 184.66 267.869C183.833 269.274 182.677 270.379 181.192 271.184C179.708 271.989 177.991 272.391 176.041 272.391ZM176.041 268.209C176.959 268.209 177.758 267.994 178.438 267.563C179.118 267.132 179.645 266.526 180.019 265.744C180.393 264.951 180.58 264.027 180.58 262.973C180.58 261.919 180.393 261.007 180.019 260.236C179.645 259.454 179.118 258.853 178.438 258.434C177.758 258.015 176.959 257.805 176.041 257.805C175.135 257.805 174.336 258.015 173.644 258.434C172.964 258.853 172.437 259.454 172.063 260.236C171.689 261.007 171.502 261.919 171.502 262.973C171.502 264.027 171.689 264.951 172.063 265.744C172.437 266.526 172.964 267.132 173.644 267.563C174.336 267.994 175.135 268.209 176.041 268.209ZM196.758 272.408C195.251 272.408 193.863 272.051 192.593 271.337C191.324 270.612 190.304 269.541 189.533 268.124C188.763 266.707 188.377 264.962 188.377 262.888C188.377 260.905 188.768 259.222 189.55 257.839C190.344 256.456 191.375 255.408 192.644 254.694C193.925 253.969 195.296 253.606 196.758 253.606C198.186 253.606 199.49 253.969 200.668 254.694C201.858 255.419 202.81 256.411 203.524 257.669C204.238 258.916 204.595 260.355 204.595 261.987C204.595 262.044 204.595 262.1 204.595 262.157C204.595 262.202 204.595 262.253 204.595 262.31L202.317 262.344C202.317 262.31 202.317 262.276 202.317 262.242C202.317 262.197 202.317 262.157 202.317 262.123C202.317 261.273 202.113 260.542 201.705 259.93C201.297 259.318 200.77 258.848 200.124 258.519C199.478 258.179 198.804 258.009 198.101 258.009C196.934 258.009 195.925 258.4 195.075 259.182C194.225 259.953 193.8 261.188 193.8 262.888C193.8 264.588 194.225 265.84 195.075 266.645C195.937 267.438 196.945 267.835 198.101 267.835C198.827 267.835 199.512 267.665 200.158 267.325C200.804 266.974 201.326 266.481 201.722 265.846C202.119 265.211 202.317 264.463 202.317 263.602L204.595 263.721C204.595 265.342 204.244 266.809 203.541 268.124C202.85 269.427 201.909 270.47 200.719 271.252C199.541 272.023 198.22 272.408 196.758 272.408ZM202.317 272V245.429H207.604V272H202.317ZM213.645 264.554V261.069H225.613L225.103 261.953C225.103 261.862 225.103 261.777 225.103 261.698C225.103 261.607 225.103 261.522 225.103 261.443C225.103 260.797 224.95 260.179 224.644 259.59C224.338 258.989 223.862 258.502 223.216 258.128C222.582 257.743 221.766 257.55 220.768 257.55C219.771 257.55 218.91 257.765 218.184 258.196C217.47 258.615 216.921 259.222 216.535 260.015C216.161 260.808 215.974 261.766 215.974 262.888C215.974 264.044 216.156 265.036 216.518 265.863C216.892 266.679 217.442 267.308 218.167 267.75C218.904 268.192 219.816 268.413 220.904 268.413C221.607 268.413 222.213 268.351 222.723 268.226C223.233 268.09 223.647 267.92 223.964 267.716C224.293 267.512 224.542 267.285 224.712 267.036C224.882 266.787 224.984 266.543 225.018 266.305H230.22C230.152 267.064 229.892 267.812 229.438 268.549C228.985 269.274 228.356 269.932 227.551 270.521C226.747 271.099 225.766 271.558 224.61 271.898C223.466 272.238 222.157 272.408 220.683 272.408C218.689 272.408 216.949 272.011 215.464 271.218C213.98 270.413 212.829 269.308 212.013 267.903C211.197 266.486 210.789 264.854 210.789 263.007C210.789 261.137 211.203 259.499 212.03 258.094C212.869 256.677 214.031 255.578 215.515 254.796C217.011 254.003 218.74 253.606 220.7 253.606C222.706 253.606 224.44 254.008 225.902 254.813C227.364 255.606 228.492 256.723 229.285 258.162C230.079 259.59 230.475 261.256 230.475 263.16C230.475 263.443 230.47 263.715 230.458 263.976C230.447 264.237 230.43 264.429 230.407 264.554H213.645ZM251.653 259.828L251.806 255.799L261.836 272H256.056L248.865 259.845L251.228 260.151L247.114 265.676L247.573 262.361V272H242.286V246.925H247.573V259.947L246.587 259.403L255.75 246.925H261.326L251.653 259.828ZM270.071 272.374C268.756 272.374 267.583 272.164 266.552 271.745C265.532 271.326 264.733 270.719 264.155 269.926C263.577 269.133 263.288 268.169 263.288 267.036C263.288 265.755 263.639 264.713 264.342 263.908C265.044 263.103 265.974 262.491 267.13 262.072C268.297 261.641 269.561 261.358 270.921 261.222C272.904 261.029 274.27 260.854 275.018 260.695C275.777 260.536 276.157 260.259 276.157 259.862C276.157 259.851 276.157 259.839 276.157 259.828C276.157 259.159 275.834 258.632 275.188 258.247C274.553 257.862 273.663 257.669 272.519 257.669C271.306 257.669 270.377 257.89 269.731 258.332C269.096 258.763 268.779 259.426 268.779 260.321H263.594C263.594 258.87 263.985 257.646 264.767 256.649C265.56 255.652 266.631 254.898 267.98 254.388C269.328 253.867 270.853 253.606 272.553 253.606C274.139 253.606 275.607 253.85 276.956 254.337C278.304 254.813 279.387 255.533 280.203 256.496C281.03 257.459 281.444 258.683 281.444 260.168C281.444 260.406 281.444 260.644 281.444 260.882C281.444 261.109 281.444 261.341 281.444 261.579V267.971C281.444 268.436 281.455 268.883 281.478 269.314C281.512 269.733 281.58 270.119 281.682 270.47C281.795 270.867 281.937 271.195 282.107 271.456C282.277 271.717 282.418 271.898 282.532 272H277.347C277.267 271.921 277.143 271.756 276.973 271.507C276.814 271.258 276.678 270.969 276.565 270.64C276.429 270.243 276.327 269.847 276.259 269.45C276.202 269.042 276.174 268.566 276.174 268.022L277.262 268.77C276.944 269.518 276.429 270.164 275.715 270.708C275.012 271.241 274.173 271.654 273.199 271.949C272.235 272.232 271.193 272.374 270.071 272.374ZM271.482 268.43C272.309 268.43 273.08 268.283 273.794 267.988C274.519 267.682 275.108 267.206 275.562 266.56C276.015 265.914 276.242 265.07 276.242 264.027V262.208L277.551 263.483C276.803 263.755 275.936 263.982 274.95 264.163C273.975 264.333 273 264.469 272.026 264.571C270.87 264.684 270.003 264.883 269.425 265.166C268.858 265.438 268.575 265.903 268.575 266.56C268.575 267.183 268.818 267.654 269.306 267.971C269.793 268.277 270.518 268.43 271.482 268.43ZM287.493 272V258.026H283.736V253.946H287.493V252.705C287.493 251.504 287.652 250.478 287.969 249.628C288.298 248.767 288.74 248.053 289.295 247.486C289.85 246.908 290.474 246.455 291.165 246.126C291.868 245.786 292.587 245.548 293.324 245.412C294.072 245.265 294.797 245.191 295.5 245.191C296.248 245.191 296.803 245.236 297.166 245.327C297.54 245.406 297.789 245.474 297.914 245.531V249.628C297.778 249.583 297.534 249.532 297.183 249.475C296.843 249.418 296.475 249.39 296.078 249.39C295.421 249.39 294.877 249.475 294.446 249.645C294.015 249.815 293.675 250.064 293.426 250.393C293.177 250.71 293.001 251.09 292.899 251.532C292.797 251.963 292.746 252.433 292.746 252.943V253.946H297.591V258.026H292.746V272H287.493ZM300.275 272V245.429H305.273V260.644L304.236 260.1L311.121 253.946H317.581L308.639 261.936L309.761 259.93L317.428 272H311.886L306.31 262.701L307.653 262.803L304.729 265.455L305.273 263.194V272H300.275ZM324.889 272.374C323.574 272.374 322.401 272.164 321.37 271.745C320.35 271.326 319.551 270.719 318.973 269.926C318.395 269.133 318.106 268.169 318.106 267.036C318.106 265.755 318.457 264.713 319.16 263.908C319.863 263.103 320.792 262.491 321.948 262.072C323.115 261.641 324.379 261.358 325.739 261.222C327.722 261.029 329.088 260.854 329.836 260.695C330.595 260.536 330.975 260.259 330.975 259.862C330.975 259.851 330.975 259.839 330.975 259.828C330.975 259.159 330.652 258.632 330.006 258.247C329.371 257.862 328.482 257.669 327.337 257.669C326.124 257.669 325.195 257.89 324.549 258.332C323.914 258.763 323.597 259.426 323.597 260.321H318.412C318.412 258.87 318.803 257.646 319.585 256.649C320.378 255.652 321.449 254.898 322.798 254.388C324.147 253.867 325.671 253.606 327.371 253.606C328.958 253.606 330.425 253.85 331.774 254.337C333.123 254.813 334.205 255.533 335.021 256.496C335.848 257.459 336.262 258.683 336.262 260.168C336.262 260.406 336.262 260.644 336.262 260.882C336.262 261.109 336.262 261.341 336.262 261.579V267.971C336.262 268.436 336.273 268.883 336.296 269.314C336.33 269.733 336.398 270.119 336.5 270.47C336.613 270.867 336.755 271.195 336.925 271.456C337.095 271.717 337.237 271.898 337.35 272H332.165C332.086 271.921 331.961 271.756 331.791 271.507C331.632 271.258 331.496 270.969 331.383 270.64C331.247 270.243 331.145 269.847 331.077 269.45C331.02 269.042 330.992 268.566 330.992 268.022L332.08 268.77C331.763 269.518 331.247 270.164 330.533 270.708C329.83 271.241 328.992 271.654 328.017 271.949C327.054 272.232 326.011 272.374 324.889 272.374ZM326.3 268.43C327.127 268.43 327.898 268.283 328.612 267.988C329.337 267.682 329.927 267.206 330.38 266.56C330.833 265.914 331.06 265.07 331.06 264.027V262.208L332.369 263.483C331.621 263.755 330.754 263.982 329.768 264.163C328.793 264.333 327.819 264.469 326.844 264.571C325.688 264.684 324.821 264.883 324.243 265.166C323.676 265.438 323.393 265.903 323.393 266.56C323.393 267.183 323.637 267.654 324.124 267.971C324.611 268.277 325.337 268.43 326.3 268.43Z" fill="#8CC84C"/>
<path fill-rule="evenodd" clip-rule="evenodd" d="M239.141 83.2084L226.263 90.6417C225.781 90.9194 225.484 91.4331 225.484 91.9887V106.868C225.484 107.424 225.781 107.937 226.262 108.215L236.933 114.38V126.795L222.953 134.865C222.363 135.205 222 135.834 222 136.514V154.728C222 155.408 222.363 156.037 222.952 156.377L236.933 164.454V176.771L226.263 182.93C225.781 183.208 225.484 183.721 225.484 184.277V199.156C225.484 199.712 225.781 200.225 226.262 200.504L239.14 207.943C239.622 208.221 240.215 208.221 240.697 207.943L253.578 200.504C254.059 200.225 254.356 199.712 254.356 199.156V184.278C254.356 183.721 254.059 183.208 253.578 182.93L242.907 176.772V164.165L255.306 157.004L265.307 164.006V175.76C265.307 176.316 265.603 176.83 266.084 177.108L278.963 184.547C279.444 184.825 280.037 184.825 280.519 184.547L293.4 177.108C293.882 176.83 294.178 176.316 294.178 175.76V160.882C294.178 160.326 293.882 159.812 293.4 159.535L280.519 152.101C280.278 151.962 280.01 151.893 279.741 151.893C279.472 151.893 279.203 151.962 278.963 152.101L267.866 158.506L257.342 151.137V139.001L267.701 131.748L278.963 138.254C279.444 138.532 280.037 138.532 280.519 138.254L293.4 130.814C293.882 130.536 294.178 130.023 294.178 129.467V114.589C294.178 114.032 293.882 113.519 293.4 113.241L280.519 105.808C280.278 105.669 280.01 105.599 279.741 105.599C279.472 105.599 279.203 105.668 278.963 105.808L266.085 113.241C265.603 113.519 265.307 114.032 265.307 114.588V126.133L254.441 133.741L242.907 127.084V114.378L253.578 108.215C254.059 107.937 254.356 107.424 254.356 106.868V91.9893C254.356 91.4331 254.059 90.9194 253.578 90.6417L240.696 83.2084C240.456 83.0693 240.187 83 239.918 83C239.65 83 239.381 83.0692 239.141 83.2084Z" fill="#8CC84C"/>
<path opacity="0.12" d="M195.735 -204.35C99.0309 -235.08 44.8138 -181.126 24.7766 -119.739C4.7394 -58.3517 30.9675 25.367 15.6548 84.2064C0.342107 143.046 -57.8791 171.923 -57.8791 171.923" stroke="#8CC84C" stroke-width="2"/>
<path opacity="0.12" d="M208.476 -87.1918C111.773 -117.921 57.5554 -63.9676 37.5183 -2.58045C17.4811 58.8067 43.7092 142.525 28.3965 201.365C13.0838 260.204 -45.1375 289.081 -45.1375 289.081" stroke="#8CC84C" stroke-width="2"/>
<path opacity="0.12" d="M182.64 -102.658C83.8733 -88.7506 45.4823 -13.6495 41.1827 53.2951C36.883 120.24 81.6559 187.745 81.2155 250.182C80.7751 312.618 32.6153 365.788 32.6153 365.788" stroke="#8CC84C" stroke-width="2"/>
<path opacity="0.12" d="M707.595 -156.869C559.367 -203.971 476.263 -121.271 445.55 -27.1759C414.836 66.9189 455.039 195.244 431.568 285.433C408.096 375.623 318.854 419.885 318.854 419.885" stroke="#8CC84C" stroke-width="2"/>
<path opacity="0.12" d="M627.902 41.3068C531.199 10.5775 476.982 64.531 456.944 125.918C436.907 187.305 463.135 271.024 447.823 329.863C432.51 388.703 374.289 417.58 374.289 417.58" stroke="#8CC84C" stroke-width="2"/>
</g>
<defs>
<clipPath id="clip0_5_44">
<rect width="472" height="364" fill="white"/>
</clipPath>
</defs>
</svg>
